<svg xmlns="http://www.w3.org/2000/svg" viewBox="0 0 150 150">
<!-- SVG created with Arrow, by QuiverAI (https://quiver.ai) -->
  <style type="text/css">.cls-0 {fill:url(#SVGID_1_);}
.cls-1 {fill:url(#SVGID_2_);}
.cls-2 {fill:url(#SVGID_3_);}
.cls-3 {fill:url(#SVGID_4_);}
.cls-4 {fill:url(#SVGID_5_);}
.cls-5 {fill:url(#SVGID_6_);}
.cls-6 {fill:url(#SVGID_7_);}
.cls-7 {fill:url(#SVGID_8_);}
.cls-8 {fill:url(#SVGID_9_);}
.cls-9 {fill:#92CAEC;}
.cls-10 {fill:url(#SVGID_10_);}</style>
  <linearGradient id="SVGID_1_" x1="12.83" x2="143.4" y1="126.4" y2="29.19" gradientUnits="userSpaceOnUse">
    <stop stop-color="#27447C" offset="0"/>
    <stop stop-color="#449DD6" offset=".5031"/>
    <stop stop-color="#4DB6E1" offset="1"/>
  </linearGradient>
  <path class="cls-0" d="m136.9 85.1 5.9-11.1c1.6-5.8 3.2-10.8 2.4-17.8-0.8-4.8-2.3-10.9-6-13.4-1.9-1.4-3.4-2.7-5.2-3.3-2.7-0.9-4.4-1.3-6.2-1.3l-0.1-3.2c-0.4-3.5-4.2-4.9-5.5-5h-5.6c-1.5 0-5.5 1.1-5.6 5.1v3h-6.1c-2-4.6-4.8-9.1-6.2-12.3l-1.7-2.3c-1.4-1-3.1-2-5-2.1h-34c-1.5 0.1-4.6 1.2-5.5 2.7l-1.2 1.7-3.5 6.6c-0.9 1.5-1.8 3.5-2.8 5.8h-24c-2.4 0-5.8 1.1-7.8 2.4-1.3 1-3.3 2.7-3.4 2.8-1.8 1.8-3.1 4.8-3.2 6.2-0.3 2.3-0.3 5.2-0.3 5.3v33.2l6.8-12 0.1-21.2c0-5.5 4.5-8.3 7.5-9.6h29.1l0.5-0.2 1.7-3.5c1-1.7 1-2.5 1.9-3.7l4.5-8.5 0.1-0.3 33.1 0.1 6.1 10.9v0.3c0.8 2.2 1.8 3.2 2.6 4.9h18.5c3.8 0 6.8 0.8 10.6 4.3 1.2 0.8 2.3 5.6 2.3 5.5-0.1-1-0.8-5-1.3-6.1-3.3-6.2-12.5-9.2-19.8-9.3 6.7-0.6 11.5 0.3 15 2.3 1.4 0.6 3.8 1.4 4.5 2.4 3.5 3.8 5.3 7.6 4.8 14.8-0.5 5.2-4.3 13.2-4.5 14.4l-4.3 7-1.2 1.3c-0.5 0.5-2 3.7-4.5 5.5l-3.7 4.2-5.6 5.3-0.7 1-3 2.1-5 4.1-2 1.5-1 0.4c-2.5 1.9-4.8 3.2-7.2 4.4l-1.8 1.2-1.9 0.8c-4 1.7-7.9 4-14.1 4-6.3 0-9.9-1.5-14.4-3.5l-1.1-0.5-0.8-0.5c-2.5-1.5-4.5-3-6.5-5.3l-0.5-0.5-1.7-2-3.5-6.2-1.8-5.5-0.7-3.3-0.9-7.7c-0.1 6-1 11.7 2.9 22.7 1 2.3 2.5 6.5 4.6 8.9l3.4 4.6 1 0.8 1 0.7 1.7 1.5 1.8 1.3 1.5 1.3 0.7 0.4 1.4 0.6 0.9 0.4c3.3 1.8 7.7 4 13.7 4h52c2.8-0.2 6.3-1.2 8-2.7l2.5-1.9c3.5-3.4 4.3-7.4 4.3-11.1v-33.5c-2 4.7-4.8 8.2-7 11.7v22.3c-0.3 2-1.5 4.5-2.3 4.6-1.5 1.1-3 3-6.1 3h-34.1v-0.4l6.7-2.7 2.4-1 6.9-4.3 0.5-0.2 5.2-3.8 2-1.7 0.8-0.8 2.5-2.1 2.2-2.1 1.4-1.8 1.4-1.2 4-4.3 2.5-3 2-2.7 2-3.8z"/>
  <radialGradient id="SVGID_2_" cx="81.37" cy="72.85" r="33.55" gradientUnits="userSpaceOnUse">
    <stop stop-color="#ECE151" offset="0"/>
    <stop stop-color="#55AB67" offset="1"/>
  </radialGradient>
  <path class="cls-1" d="m74.9 57.9c-5.5 0-9.8 1.7-14.9 4.5l-2.1 1.7-2 1.9-2.8 3.4-2 4c-1.5 3-3 8-2.7 12.6 0.5 6.4 2.5 9.6 4.2 12.9 2 2.5 4.8 5.7 6.8 7 4 2.5 8.2 5.7 16.7 5.7 6.8-0.2 15.3-3.2 20.5-10.6l1-1.4 2.3-4.5 1-3.1c2-6.9 0.7-14.6-1.8-18.6l-2-4-3.2-3.8-2-1.6-2.8-1.9c-4-2.5-7.7-4-14.2-4.2z"/>
  <linearGradient id="SVGID_3_" x1="6.732" x2="69.53" y1="103.9" y2="55.16" gradientUnits="userSpaceOnUse">
    <stop stop-color="#27447C" offset="0"/>
    <stop stop-color="#449DD6" offset="1"/>
  </linearGradient>
  <path class="cls-2" d="m24.4 69.1-5.3 5.9-1.5 1.9-3.2 4.2-0.8 0.8-1 2.2-1.5 2.5-2.5 4.8c-0.7 1.7-1.7 3.7-2 6-1.7 5.7-2.7 14.5 1 22 1 1.6 2.3 3.6 3.8 4.6 3 2.1 4.2 3.1 8.7 4.4 2.3 0.5 6 0.2 26.5 0.2v-0.2c-6-0.4-11.7-2-15.2-3.8-4-1-6.8-4-9.8-7.2-1.7-2.3-2.5-5-2.7-7.3-0.3 2 0.5 6.3 1 7.8 2.2 4.2 6.5 8 11.2 9-4.5-0.8-8.7-2.8-10-3.9-1.5-1.1-2.7-3.4-4.2-5.9-2-6-0.8-13 1-17.7l1.5-3.4 0.2-1 0.8-1.6 4-6.5 0.7-0.5 0.8-1.5 0.5-0.8 2-2.7 3.7-3.8 0.5-1 2-2 0.8-0.2 4.7-4.5 1.5-1 5.5-4.3 3.5-2.2 1-0.3 2.8-1.7 6-3.3 6.5-2.5c10.2-3.2 18.5-0.6 23 1.8l1.5 0.7c4.7 2.8 9.2 6.9 12.1 12 2.4 4.5 4.1 10.5 3.9 18.5 1.1-9-0.5-17-3-22.7-1.3-3.3-3.8-7.3-7-10.5-1-1.8-5-4.8-5.8-5.3-1.7-1.7-8.2-5.2-13.7-5.9-3.5-0.2-7.8-0.3-11.3 0.4-4 0.8-9.2 2.5-13 4l-2.2 1.4-2.3 0.6c-2.7 1.4-5.2 3-8 4.8l-2.5 1.6c-2.2 1.6-6 4.1-7 5.6l-0.2 0.5-1.3 0.8-3.7 3.5-1 1.5-1 1.2z"/>
  <linearGradient id="SVGID_4_" x1="57.57" x2="141.6" y1="120.8" y2="56.18" gradientUnits="userSpaceOnUse">
    <stop stop-color="#27447C" offset="0"/>
    <stop stop-color="#4DB6E1" offset="1"/>
  </linearGradient>
  <path class="cls-3" d="m70.1 119.6c9 1.3 20-0.2 26.8-3.7 9-5 21.5-12.5 32.5-25 6.2-7.3 15.2-20 15.7-31.3 0.3-4-1.5-13.5-5.2-16.2-5.8-4.4-7.8-4.4-10.3-5 2.5 1 9 3.5 9.5 9.2 1.3 9.8-4 18.8-7 22.8-1 1.2-2.2 4-2.2 4l-4 6.2-1.8 2-1.5 2.5-1.5 1.8-3.7 4.2-6.3 5.8-6.5 5.2-4.2 3.3s-7.5 4.5-13.8 7.7c-6.5 3.3-10 6.5-16.5 6.5z"/>
  <linearGradient id="SVGID_5_" x1="110.8" x2="127.2" y1="60.28" y2="60.28" gradientUnits="userSpaceOnUse">
    <stop stop-color="#27447C" offset="0"/>
    <stop stop-color="#449DD6" offset=".4831"/>
    <stop stop-color="#326091" offset="1"/>
  </linearGradient>
  <path class="cls-4" d="m118.9 51.8c-3.3 0-8 2.6-8.1 7.8-0.2 6.5 5.1 8.9 8.1 8.9 3.5 0 5.2-1.1 7.2-3.9 1-1.5 1.3-3.2 1-5.7-0.2-2.5-3-5-3.5-5.8-1-0.7-2.5-1.3-4.7-1.3z"/>
  <linearGradient id="SVGID_6_" x1="107.2" x2="123.6" y1="64.65" y2="53.15" gradientUnits="userSpaceOnUse">
    <stop stop-color="#27447C" offset="0"/>
    <stop stop-color="#449DD6" offset=".4831"/>
    <stop stop-color="#326091" offset="1"/>
  </linearGradient>
  <path class="cls-5" d="m119.1 52.1c-2 0-7.7 1.3-8.2 7-0.5 5.8 4.7 9.4 8 9.3 6.2 0 8.2-6 8.2-7.8-0.2-6.2-4.5-8.5-8-8.5z"/>
  <linearGradient id="SVGID_7_" x1="117.7" x2="123.6" y1="56.6" y2="56.04" gradientUnits="userSpaceOnUse">
    <stop stop-color="#88C6E9" offset="0"/>
    <stop stop-color="#93D4F3" offset="1"/>
  </linearGradient>
  <path class="cls-6" d="m118 54.9c-0.6 1.5 0.4 3.7 2.4 4.2 1.2 0.3 3.1-0.5 3.2-2 0.3-3-4.5-4.7-5.6-2.2z"/>
  <linearGradient id="SVGID_8_" x1="8.402" x2="67.16" y1="82.14" y2="42.88" gradientUnits="userSpaceOnUse">
    <stop stop-color="#3F77AF" offset="0"/>
    <stop stop-color="#4EB2DE" offset="1"/>
  </linearGradient>
  <path class="cls-7" d="m67.1 47.1c-10 1.3-23.7 9-29.5 15-3 0.8-6.5 5.8-8.5 6.8-1.2 0.7-4 4.2-4 4.5-0.7 1.5-1.7 1-5 5.7l-1 1.8-1 1-4.5 7c-3 7-5 13-5.2 22.5 0.7-4.8 2.2-10.8 4-15l1-3 1.2-1.5 2.5-4.3 2-2.6 0.5-0.9 1.5-2.2 2-2.3 3-3.6 0.5-0.9 6-5.5 0.5-0.7 7-5.8 2.5-1.2 5.3-3.8 2.5-1.5 2.2-1 3.3-2 2.2-1 2.3-1.5 6.7-4z"/>
  <linearGradient id="SVGID_9_" x1="77.06" x2="141.9" y1="117.6" y2="57.07" gradientUnits="userSpaceOnUse">
    <stop stop-color="#3F77AF" offset="0"/>
    <stop stop-color="#92CAEC" offset="1"/>
  </linearGradient>
  <path class="cls-8" d="m76.6 121.1c7.5-0.2 17-3.5 21.3-5.7 4.5-2.8 7.5-3 13.7-8.3l1.8-1.2 3.5-2.9 0.7-0.6 1.8-2.3 1.5-1.2c1.7-0.5 3.5-4.5 5-5.5 2.5-1.5 6.7-8.8 10-13.3 2-4.5 6-12 5.7-22.5-0.2 7-4 14-7.5 20.5l-1.2 2-2 2.3-1 1.7-1 1.8-6 6.2-5.5 5.3-1.3 1.2-1 0.5-5.5 5-1.5 1.3-2 1.2c-3 2.5-6.5 5-10.5 6.8-6.5 3.5-12 6.2-19 7.7z"/>
  <linearGradient id="SVGID_10_" x1="71.22" x2="91.71" y1="70.76" y2="70.76" gradientUnits="userSpaceOnUse">
    <stop stop-color="#C5D273" offset="0"/>
    <stop stop-color="#D0DB73" offset="1"/>
  </linearGradient>
  <path class="cls-10" d="m71.7 66.4c-1.3 5.5 1.9 12.7 8.7 13.2 6.7 0.5 11.5-1.7 11.2-7.5-0.2-4.7-6.2-9.2-10.7-9.5-4.8-0.2-6.3-0.2-9.2 3.8z"/>
</svg>